# xmcd
#
# Track frame offsets: 
#        150
#        18398
#        40741
#        58459
#        81339
#        98924
#        117171
#        139412
#        159337
#        179101
#        190339
#        205971
#        226718
#        247432
#        266805
#        285387
#        306742
#
# Disc length: 4348 seconds
#
# Revision: 0
# Processed by: cddbd v1.5PL3 Copyright (c) Steve Scherf et al.
# Submitted via: ExactAudioCopy v0.95a5
#
DISCID=0810fa11
DTITLE=Tori Amos - Star Profile
DYEAR=2000
DGENRE=Blues
TTITLE0=Past The Mission
TTITLE1=Crucify
TTITLE2=Concertina
TTITLE3=Cornflake Girl
TTITLE4=God
TTITLE5=Glory Of The 80's
TTITLE6=China
TTITLE7=Caught A Little Sneeze
TTITLE8=Jackie's Strenght
TTITLE9=Josephine
TTITLE10=Riot Poof
TTITLE11=Black-Dove (January)
TTITLE12=Tear In Your Hand
TTITLE13=Northem Lad
TTITLE14=Playboy Mommy
TTITLE15=Spring Haze
TTITLE16=1000 Oceans
EXTD=
EXTT0=
EXTT1=
EXTT2=
EXTT3=
EXTT4=
EXTT5=
EXTT6=
EXTT7=
EXTT8=
EXTT9=
EXTT10=
EXTT11=
EXTT12=
EXTT13=
EXTT14=
EXTT15=
EXTT16=
PLAYORDER=
